<svg xmlns="http://www.w3.org/2000/svg" version="1.1" xmlns:xlink="http://www.w3.org/1999/xlink" xmlns:svgjs="http://svgjs.com/svgjs" width="1440" height="560" preserveAspectRatio="none" viewBox="0 0 1440 560">
    <g mask="url(&quot;#SvgjsMask1001&quot;)" fill="none">
        <path d="M116.12 319.94L181.08 357.44L181.08 432.44L116.12 469.94L51.17 432.44L51.17 357.44zM116.12 544.94L181.08 582.44L181.08 657.44L116.12 694.94L51.17 657.44L51.17 582.44zM310.99 -17.56L375.94 19.94L375.94 94.94L310.99 132.44L246.03 94.94L246.03 19.94zM375.94 319.94L440.89 357.44L440.89 432.44L375.94 469.94L310.99 432.44L310.99 357.44zM440.89 207.44L505.85 244.94L505.85 319.94L440.89 357.44L375.94 319.94L375.94 244.94zM505.85 319.94L570.8 357.44L570.8 432.44L505.85 469.94L440.89 432.44L440.89 357.44zM570.8 -17.56L635.75 19.94L635.75 94.94L570.8 132.44L505.85 94.94L505.85 19.94zM765.66 544.94L830.62 582.44L830.62 657.44L765.66 694.94L700.71 657.44L700.71 582.44zM895.57 94.94L960.52 132.44L960.52 207.44L895.57 244.94L830.61 207.44L830.61 132.44zM830.61 207.44L895.57 244.94L895.57 319.94L830.61 357.44L765.66 319.94L765.66 244.94zM960.52 207.44L1025.48 244.94L1025.48 319.94L960.52 357.44L895.57 319.94L895.57 244.94zM1090.43 -17.56L1155.38 19.94L1155.38 94.94L1090.43 132.44L1025.48 94.94L1025.48 19.94zM1090.43 207.44L1155.38 244.94L1155.38 319.94L1090.43 357.44L1025.48 319.94L1025.48 244.94zM1090.43 432.44L1155.38 469.94L1155.38 544.94L1090.43 582.44L1025.48 544.94L1025.48 469.94zM1285.29 94.94L1350.24 132.44L1350.24 207.44L1285.29 244.94L1220.34 207.44L1220.34 132.44zM1285.29 544.94L1350.24 582.44L1350.24 657.44L1285.29 694.94L1220.34 657.44L1220.34 582.44zM1350.25 -17.56L1415.2 19.94L1415.2 94.94L1350.25 132.44L1285.29 94.94L1285.29 19.94zM1415.2 319.94L1480.15 357.44L1480.15 432.44L1415.2 469.94L1350.25 432.44L1350.25 357.44zM1545.11 94.94L1610.06 132.44L1610.06 207.44L1545.11 244.94L1480.15 207.44L1480.15 132.44zM1480.15 432.44L1545.11 469.94L1545.11 544.94L1480.15 582.44L1415.2 544.94L1415.2 469.94z" stroke="#03305d" stroke-width="2"></path>
        <path d="M108.62 319.94 a7.5 7.5 0 1 0 15 0 a7.5 7.5 0 1 0 -15 0zM173.58 357.44 a7.5 7.5 0 1 0 15 0 a7.5 7.5 0 1 0 -15 0zM173.58 432.44 a7.5 7.5 0 1 0 15 0 a7.5 7.5 0 1 0 -15 0zM108.62 469.94 a7.5 7.5 0 1 0 15 0 a7.5 7.5 0 1 0 -15 0zM43.67 432.44 a7.5 7.5 0 1 0 15 0 a7.5 7.5 0 1 0 -15 0zM43.67 357.44 a7.5 7.5 0 1 0 15 0 a7.5 7.5 0 1 0 -15 0zM108.62 544.94 a7.5 7.5 0 1 0 15 0 a7.5 7.5 0 1 0 -15 0zM173.58 582.44 a7.5 7.5 0 1 0 15 0 a7.5 7.5 0 1 0 -15 0zM173.58 657.44 a7.5 7.5 0 1 0 15 0 a7.5 7.5 0 1 0 -15 0zM108.62 694.94 a7.5 7.5 0 1 0 15 0 a7.5 7.5 0 1 0 -15 0zM43.67 657.44 a7.5 7.5 0 1 0 15 0 a7.5 7.5 0 1 0 -15 0zM43.67 582.44 a7.5 7.5 0 1 0 15 0 a7.5 7.5 0 1 0 -15 0zM303.49 -17.56 a7.5 7.5 0 1 0 15 0 a7.5 7.5 0 1 0 -15 0zM368.44 19.94 a7.5 7.5 0 1 0 15 0 a7.5 7.5 0 1 0 -15 0zM368.44 94.94 a7.5 7.5 0 1 0 15 0 a7.5 7.5 0 1 0 -15 0zM303.49 132.44 a7.5 7.5 0 1 0 15 0 a7.5 7.5 0 1 0 -15 0zM238.53 94.94 a7.5 7.5 0 1 0 15 0 a7.5 7.5 0 1 0 -15 0zM238.53 19.94 a7.5 7.5 0 1 0 15 0 a7.5 7.5 0 1 0 -15 0zM368.44 319.94 a7.5 7.5 0 1 0 15 0 a7.5 7.5 0 1 0 -15 0zM433.39 357.44 a7.5 7.5 0 1 0 15 0 a7.5 7.5 0 1 0 -15 0zM433.39 432.44 a7.5 7.5 0 1 0 15 0 a7.5 7.5 0 1 0 -15 0zM368.44 469.94 a7.5 7.5 0 1 0 15 0 a7.5 7.5 0 1 0 -15 0zM303.49 432.44 a7.5 7.5 0 1 0 15 0 a7.5 7.5 0 1 0 -15 0zM303.49 357.44 a7.5 7.5 0 1 0 15 0 a7.5 7.5 0 1 0 -15 0zM433.39 207.44 a7.5 7.5 0 1 0 15 0 a7.5 7.5 0 1 0 -15 0zM498.35 244.94 a7.5 7.5 0 1 0 15 0 a7.5 7.5 0 1 0 -15 0zM498.35 319.94 a7.5 7.5 0 1 0 15 0 a7.5 7.5 0 1 0 -15 0zM368.44 244.94 a7.5 7.5 0 1 0 15 0 a7.5 7.5 0 1 0 -15 0zM563.3 357.44 a7.5 7.5 0 1 0 15 0 a7.5 7.5 0 1 0 -15 0zM563.3 432.44 a7.5 7.5 0 1 0 15 0 a7.5 7.5 0 1 0 -15 0zM498.35 469.94 a7.5 7.5 0 1 0 15 0 a7.5 7.5 0 1 0 -15 0zM563.3 -17.56 a7.5 7.5 0 1 0 15 0 a7.5 7.5 0 1 0 -15 0zM628.25 19.94 a7.5 7.5 0 1 0 15 0 a7.5 7.5 0 1 0 -15 0zM628.25 94.94 a7.5 7.5 0 1 0 15 0 a7.5 7.5 0 1 0 -15 0zM563.3 132.44 a7.5 7.5 0 1 0 15 0 a7.5 7.5 0 1 0 -15 0zM498.35 94.94 a7.5 7.5 0 1 0 15 0 a7.5 7.5 0 1 0 -15 0zM498.35 19.94 a7.5 7.5 0 1 0 15 0 a7.5 7.5 0 1 0 -15 0zM758.16 544.94 a7.5 7.5 0 1 0 15 0 a7.5 7.5 0 1 0 -15 0zM823.12 582.44 a7.5 7.5 0 1 0 15 0 a7.5 7.5 0 1 0 -15 0zM823.12 657.44 a7.5 7.5 0 1 0 15 0 a7.5 7.5 0 1 0 -15 0zM758.16 694.94 a7.5 7.5 0 1 0 15 0 a7.5 7.5 0 1 0 -15 0zM693.21 657.44 a7.5 7.5 0 1 0 15 0 a7.5 7.5 0 1 0 -15 0zM693.21 582.44 a7.5 7.5 0 1 0 15 0 a7.5 7.5 0 1 0 -15 0zM888.07 94.94 a7.5 7.5 0 1 0 15 0 a7.5 7.5 0 1 0 -15 0zM953.02 132.44 a7.5 7.5 0 1 0 15 0 a7.5 7.5 0 1 0 -15 0zM953.02 207.44 a7.5 7.5 0 1 0 15 0 a7.5 7.5 0 1 0 -15 0zM888.07 244.94 a7.5 7.5 0 1 0 15 0 a7.5 7.5 0 1 0 -15 0zM823.11 207.44 a7.5 7.5 0 1 0 15 0 a7.5 7.5 0 1 0 -15 0zM823.11 132.44 a7.5 7.5 0 1 0 15 0 a7.5 7.5 0 1 0 -15 0zM888.07 319.94 a7.5 7.5 0 1 0 15 0 a7.5 7.5 0 1 0 -15 0zM823.11 357.44 a7.5 7.5 0 1 0 15 0 a7.5 7.5 0 1 0 -15 0zM758.16 319.94 a7.5 7.5 0 1 0 15 0 a7.5 7.5 0 1 0 -15 0zM758.16 244.94 a7.5 7.5 0 1 0 15 0 a7.5 7.5 0 1 0 -15 0zM1017.98 244.94 a7.5 7.5 0 1 0 15 0 a7.5 7.5 0 1 0 -15 0zM1017.98 319.94 a7.5 7.5 0 1 0 15 0 a7.5 7.5 0 1 0 -15 0zM953.02 357.44 a7.5 7.5 0 1 0 15 0 a7.5 7.5 0 1 0 -15 0zM1082.93 -17.56 a7.5 7.5 0 1 0 15 0 a7.5 7.5 0 1 0 -15 0zM1147.88 19.94 a7.5 7.5 0 1 0 15 0 a7.5 7.5 0 1 0 -15 0zM1147.88 94.94 a7.5 7.5 0 1 0 15 0 a7.5 7.5 0 1 0 -15 0zM1082.93 132.44 a7.5 7.5 0 1 0 15 0 a7.5 7.5 0 1 0 -15 0zM1017.98 94.94 a7.5 7.5 0 1 0 15 0 a7.5 7.5 0 1 0 -15 0zM1017.98 19.94 a7.5 7.5 0 1 0 15 0 a7.5 7.5 0 1 0 -15 0zM1082.93 207.44 a7.5 7.5 0 1 0 15 0 a7.5 7.5 0 1 0 -15 0zM1147.88 244.94 a7.5 7.5 0 1 0 15 0 a7.5 7.5 0 1 0 -15 0zM1147.88 319.94 a7.5 7.5 0 1 0 15 0 a7.5 7.5 0 1 0 -15 0zM1082.93 357.44 a7.5 7.5 0 1 0 15 0 a7.5 7.5 0 1 0 -15 0zM1082.93 432.44 a7.5 7.5 0 1 0 15 0 a7.5 7.5 0 1 0 -15 0zM1147.88 469.94 a7.5 7.5 0 1 0 15 0 a7.5 7.5 0 1 0 -15 0zM1147.88 544.94 a7.5 7.5 0 1 0 15 0 a7.5 7.5 0 1 0 -15 0zM1082.93 582.44 a7.5 7.5 0 1 0 15 0 a7.5 7.5 0 1 0 -15 0zM1017.98 544.94 a7.5 7.5 0 1 0 15 0 a7.5 7.5 0 1 0 -15 0zM1017.98 469.94 a7.5 7.5 0 1 0 15 0 a7.5 7.5 0 1 0 -15 0zM1277.79 94.94 a7.5 7.5 0 1 0 15 0 a7.5 7.5 0 1 0 -15 0zM1342.74 132.44 a7.5 7.5 0 1 0 15 0 a7.5 7.5 0 1 0 -15 0zM1342.74 207.44 a7.5 7.5 0 1 0 15 0 a7.5 7.5 0 1 0 -15 0zM1277.79 244.94 a7.5 7.5 0 1 0 15 0 a7.5 7.5 0 1 0 -15 0zM1212.84 207.44 a7.5 7.5 0 1 0 15 0 a7.5 7.5 0 1 0 -15 0zM1212.84 132.44 a7.5 7.5 0 1 0 15 0 a7.5 7.5 0 1 0 -15 0zM1277.79 544.94 a7.5 7.5 0 1 0 15 0 a7.5 7.5 0 1 0 -15 0zM1342.74 582.44 a7.5 7.5 0 1 0 15 0 a7.5 7.5 0 1 0 -15 0zM1342.74 657.44 a7.5 7.5 0 1 0 15 0 a7.5 7.5 0 1 0 -15 0zM1277.79 694.94 a7.5 7.5 0 1 0 15 0 a7.5 7.5 0 1 0 -15 0zM1212.84 657.44 a7.5 7.5 0 1 0 15 0 a7.5 7.5 0 1 0 -15 0zM1212.84 582.44 a7.5 7.5 0 1 0 15 0 a7.5 7.5 0 1 0 -15 0zM1342.75 -17.56 a7.5 7.5 0 1 0 15 0 a7.5 7.5 0 1 0 -15 0zM1407.7 19.94 a7.5 7.5 0 1 0 15 0 a7.5 7.5 0 1 0 -15 0zM1407.7 94.94 a7.5 7.5 0 1 0 15 0 a7.5 7.5 0 1 0 -15 0zM1342.75 132.44 a7.5 7.5 0 1 0 15 0 a7.5 7.5 0 1 0 -15 0zM1277.79 19.94 a7.5 7.5 0 1 0 15 0 a7.5 7.5 0 1 0 -15 0zM1407.7 319.94 a7.5 7.5 0 1 0 15 0 a7.5 7.5 0 1 0 -15 0zM1472.65 357.44 a7.5 7.5 0 1 0 15 0 a7.5 7.5 0 1 0 -15 0zM1472.65 432.44 a7.5 7.5 0 1 0 15 0 a7.5 7.5 0 1 0 -15 0zM1407.7 469.94 a7.5 7.5 0 1 0 15 0 a7.5 7.5 0 1 0 -15 0zM1342.75 432.44 a7.5 7.5 0 1 0 15 0 a7.5 7.5 0 1 0 -15 0zM1342.75 357.44 a7.5 7.5 0 1 0 15 0 a7.5 7.5 0 1 0 -15 0zM1537.61 94.94 a7.5 7.5 0 1 0 15 0 a7.5 7.5 0 1 0 -15 0zM1602.56 132.44 a7.5 7.5 0 1 0 15 0 a7.5 7.5 0 1 0 -15 0zM1602.56 207.44 a7.5 7.5 0 1 0 15 0 a7.5 7.5 0 1 0 -15 0zM1537.61 244.94 a7.5 7.5 0 1 0 15 0 a7.5 7.5 0 1 0 -15 0zM1472.65 207.44 a7.5 7.5 0 1 0 15 0 a7.5 7.5 0 1 0 -15 0zM1472.65 132.44 a7.5 7.5 0 1 0 15 0 a7.5 7.5 0 1 0 -15 0zM1537.61 469.94 a7.5 7.5 0 1 0 15 0 a7.5 7.5 0 1 0 -15 0zM1537.61 544.94 a7.5 7.5 0 1 0 15 0 a7.5 7.5 0 1 0 -15 0zM1472.65 582.44 a7.5 7.5 0 1 0 15 0 a7.5 7.5 0 1 0 -15 0zM1407.7 544.94 a7.5 7.5 0 1 0 15 0 a7.5 7.5 0 1 0 -15 0z" fill="#03305d"></path>
        <path d="M78.86 47.42L122.17 72.42L122.17 122.42L78.86 147.42L35.56 122.42L35.56 72.42zM78.86 497.42L122.17 522.42L122.17 572.42L78.86 597.42L35.56 572.42L35.56 522.42zM122.17 -27.58L165.47 -2.58L165.47 47.42L122.17 72.42L78.86 47.42L78.86 -2.58zM165.47 497.42L208.77 522.42L208.77 572.42L165.47 597.42L122.17 572.42L122.17 522.42zM208.77 272.42L252.07 297.42L252.07 347.42L208.77 372.42L165.47 347.42L165.47 297.42zM252.07 497.42L295.38 522.42L295.38 572.42L252.07 597.42L208.77 572.42L208.77 522.42zM295.38 -27.58L338.68 -2.58L338.68 47.42L295.38 72.42L252.07 47.42L252.07 -2.58zM468.59 -27.58L511.89 -2.58L511.89 47.42L468.59 72.42L425.28 47.42L425.28 -2.58zM468.59 272.42L511.89 297.42L511.89 347.42L468.59 372.42L425.28 347.42L425.28 297.42zM511.89 347.42L555.19 372.42L555.19 422.42L511.89 447.42L468.59 422.42L468.59 372.42zM555.19 272.42L598.49 297.42L598.49 347.42L555.19 372.42L511.89 347.42L511.89 297.42zM555.19 422.42L598.49 447.42L598.49 497.42L555.19 522.42L511.89 497.42L511.89 447.42zM641.8 122.42L685.1 147.42L685.1 197.42L641.8 222.42L598.49 197.42L598.49 147.42zM685.1 197.42L728.4 222.42L728.4 272.42L685.1 297.42L641.8 272.42L641.8 222.42zM858.31 47.42L901.61 72.42L901.61 122.42L858.31 147.42L815.01 122.42L815.01 72.42zM858.31 347.42L901.61 372.42L901.61 422.42L858.31 447.42L815.01 422.42L815.01 372.42zM1031.52 47.42L1074.82 72.42L1074.82 122.42L1031.52 147.42L988.22 122.42L988.22 72.42zM988.22 122.42L1031.52 147.42L1031.52 197.42L988.22 222.42L944.91 197.42L944.91 147.42zM988.22 272.42L1031.52 297.42L1031.52 347.42L988.22 372.42L944.91 347.42L944.91 297.42zM1074.82 272.42L1118.12 297.42L1118.12 347.42L1074.82 372.42L1031.52 347.42L1031.52 297.42zM1118.12 347.42L1161.42 372.42L1161.42 422.42L1118.12 447.42L1074.82 422.42L1074.82 372.42zM1204.73 47.42L1248.03 72.42L1248.03 122.42L1204.73 147.42L1161.42 122.42L1161.42 72.42zM1334.63 -27.58L1377.94 -2.58L1377.94 47.42L1334.63 72.42L1291.33 47.42L1291.33 -2.58zM1377.94 497.42L1421.24 522.42L1421.24 572.42L1377.94 597.42L1334.63 572.42L1334.63 522.42zM1421.24 -27.58L1464.54 -2.58L1464.54 47.42L1421.24 72.42L1377.94 47.42L1377.94 -2.58zM1464.54 197.42L1507.85 222.42L1507.85 272.42L1464.54 297.42L1421.24 272.42L1421.24 222.42zM1421.24 272.42L1464.54 297.42L1464.54 347.42L1421.24 372.42L1377.94 347.42L1377.94 297.42z" stroke="rgba(6, 80, 156, 0.93)" stroke-width="2"></path>
    </g>
    <defs>
        <mask id="SvgjsMask1001">
            <rect width="1440" height="560" fill="#ffffff"></rect>
        </mask>
    </defs>
</svg>